<svg id="Electronic_Keyboard_Instrument" data-name="Electronic Keyboard Instrument" xmlns="http://www.w3.org/2000/svg" viewBox="0 0 768 1024"><defs><style>.cls-1{fill:#6e847b;}.cls-2{fill:#fff;}</style></defs><polygon class="cls-1" points="1.33 0 -2.6 374.81 768.78 538.14 770.88 0 1.33 0"/><path id="G_key" data-name="G key" class="cls-2" d="M279,437.62c9.54-.61,21-.39,23,4.59,2.77,7.11-15.78,19.3-27.58,29.11-59.27,49.28-39.72,114.61-95.84,154.9-6.56,4.71-17.15,11.22-33.72,24.51a505.32,505.32,0,0,0-38.95,35.06c-22,21.73-33,32.6-39.83,42.89-35.27,53.37,5.43,117.74-23,136.34-10.34,6.78-26,4.9-35.23-1.53C-9.07,851.74-.48,825.31,0,748.6c.37-58.93,0-91.92,0-91.92-.42-38-1.08-47.91,6.3-59.74,13.14-21.1,30.77-14.44,69.71-37.1,37.07-21.57,29.88-29.39,74.29-56.35,21.62-13.12,26.12-12.57,76.59-38.3C249,453.91,267,444.2,279,437.62Z"/><path id="A_Key" data-name="A Key" class="cls-2" d="M6.3,742.47c-.52,2.41-3.36,17,4.59,27.57,9.09,12.09,30.64,16.85,30.64,16.85-8.32,5.46-13.69,12.09-12.25,16.85,1.53,5.1,10.23,4.64,10.72,7.66.63,3.94-13.88,6.17-23,15.32-8.69,8.74-15,26.39-9.19,36.77,11.78,21,71.18,8.67,101.11,23,1,.46,6.65,3.24,14.62,6.77,6.53,2.89,14.77,6.36,24.57,10a169.21,169.21,0,0,0,20.55,6.16c20,4.73,34,7.86,42.89,0,8.68-7.68,8.18-22.06,7.66-36.77-.48-13.79-.8-23-6.89-31-12.27-16.16-32.9-7.57-42.13-21.06s.85-36.72,9.19-49c5.82-8.57,11.78-13.14,55.15-38.29,31.95-18.53,33-18.55,44.43-26a299,299,0,0,0,47.49-38.29c7.61-7.61,10.59-11.5,12.25-13.79,12.33-17,13.92-31.56,16.85-39.83,7.72-21.76,32.94-23.28,93.45-49,47.21-20.08,79.93-34.36,79.66-52.09-.17-11.09-13.2-19.39-26-27.57-6.59-4.2-33.55-21.37-58.21-12.26-11.08,4.09-14.47,10.82-26.05,23-17.29,18.18-33,27.68-58.21,42.9a582.65,582.65,0,0,1-90.38,44.42c-27.58,10.66-39.49,12.81-64.34,26-7.33,3.91-7.29,4.25-39.83,24.51-35.55,22.14-53.52,33.43-65.88,39.83C78,686.35,73.64,686.44,53.79,698,13,721.86,7.86,735.12,6.3,742.47Z"/><path id="B_Key" data-name="B Key" class="cls-2" d="M211.57,909.45c7.79,11.56,17.62,12.17,55.15,23,81.53,23.45,107,41.22,121,27.57,5.23-5.09,6-14.11,7.66-32.17,1.92-21.29,4.48-42.66-7.66-55.15-17.56-18.07-45.18-7.33-50.55-19.91-5.26-12.33,17.23-33.37,26-41.37,45.66-41.45,81.47-59.08,115.12-80.93C542.73,688.67,549,664,625.17,611.29c30.16-20.87,45.23-31.3,47.51-32.74,39.44-24.89,61.77-33.44,59.75-41.36-1.54-6-14.55-5.29-50.56-13.79-33.8-8-35.16-11.63-46-12.25-35-2-60.46,34.09-84.16,58.59-32.48,33.57-83.88,73.72-147.15,82.35-31.42,4.28-31.34-4.66-58.59,1.91-38.12,9.2-41.25,27.43-105.33,71.62-37.05,25.55-55.91,33.18-68.94,59.74-3.14,6.41-14.92,32.24-4.59,44.43,7.11,8.38,17.43,1.73,27.57,9.19C213,852.4,195.57,885.68,211.57,909.45Z"/><path id="C3_Key" data-name="C3 Key" class="cls-2" d="M412.26,964.6c22.55-.12,28.6,7.64,78.12,27.57,47.72,19.2,71.77,28.66,81.19,21.45,18.22-13.94,5.07-61.67,3.07-68.94-3.73-13.54-7.77-18.33-9.19-19.91-12.63-14-28.15-7.71-36.77-19.92-7.23-10.24-4.27-26,1.37-35.39,6.15-10.26,16.33-14.37,21.61-16.69,4.54-2,29.07-21.76,78.13-61.28,32-25.79,42.36-35.19,41.36-47.49-.82-10.07-8.46-12.37-12.26-24.51-7-22.42,9.16-46.12,15.32-55.15,26-38.13,54.22-30.11,79.66-67.4,6.25-9.17,22-32.25,14.13-49-9.68-20.62-52.3-25.8-84.6-16.85C625,547.27,634.58,600.24,558.85,664.23,515.59,700.79,495.27,698,433.7,748.6,393.38,781.72,402,783,372.43,803.74c-18.1,12.71-35,21.82-36.77,38.3-1.05,9.73,3.65,17.48,10.06,28.06,16.69,27.52,32.39,25.07,39,43.94,7.11,20.41-6.87,35.83,3.06,46C393.7,966.08,402.76,964.65,412.26,964.6Z"/><path id="D_Key" data-name="D Key" class="cls-2" d="M632.85,1024c88.85-.44,126.14,11.2,135.15-7.32,4.89-10,.75-27.48,0-30.64-2-8.62-3.74-15.77-9.53-21.44-12.9-12.65-30.69-2.86-42.9-15.32-.78-.81-8.06-8.45-7.66-18.39.68-16.54,22-22.27,50.56-55.15,5-5.73,7.47-9.16,9.53-13.78,7.59-17,2.24-34.19,0-42.9-8.19-31.81,4-32.64,0-90.38-2.9-41.71-4.55-65.35-15.66-68.94-15.19-4.9-29.75,33.62-81.19,84.26-25.29,24.89-28.22,21.93-93.45,78.13-54.57,47-62.64,57.8-61.27,70.47,3.18,29.62,54.11,34,59.74,72,3.39,22.87-12.94,35.67-4.6,49C579.3,1026,599,1024.17,632.85,1024Z"/><path id="Ab_Key" data-name="Ab Key" d="M174.81,534.13c-1.88,3.82,0,.94-10.72,32.17-12.43,36.27-15.36,41.37-12.26,47.49,7.48,14.77,39.54,14.65,60.23,10,15.87-3.56,24.19-9.59,51.6-26.86s-25.58,16.9,62.81-38.3c140.75-87.91,66.08-44,79.66-52.09,21.44-12.73,39.95-22.59,38.3-32.17-.87-5-6.95-7.95-12.11-10.13-56.15-23.68-108.92-11.31-108.92-11.31-10.75,2.52-23.51,7.8-49,18.38C191.19,505.8,179.24,525.14,174.81,534.13Z"/><path id="Bb_Key" data-name="Bb Key" d="M338.72,655.15c8.39,17,40.71,20.54,64.34,15.32,6.05-1.34,16.09-4.25,65.88-41.36,25.58-19.07,26.14-20.7,44.42-33.71,19.38-13.78,35.73-24,53.62-35.23,46-28.78,64.4-37.29,62.81-47.49-1.26-8.06-14.25-12.4-18.39-13.79-15-5-23.8,1.09-41.36,3.07-30.65,3.45-35.95-11.6-64.34-7.66-8.63,1.19-18.52,5.9-38.3,15.32-24.27,11.56-27.07,15.33-62.8,35.23-30.72,17.1-34.57,17.61-41.37,26-8.49,10.56-11.79,21.85-18.38,44.43C338.46,637.21,335.27,648.15,338.72,655.15Z"/><path id="C_Key" data-name="C# Key" d="M642,721c3.49,7.79,14.58,10.3,36.77,15.32,16.76,3.79,25.13,5.69,35.23,4.6,2.82-.31,34-4.14,48.5-27.57,7-11.26,4.7-18.38,5.46-49,1.37-55.52,9.86-75.44,0-81.19-4-2.36-8.57-.81-35.57,13.79-57.81,31.23-64.7,39-69.1,48.27-5.51,11.59-.53,11.63-8.27,34.74C646.51,705.48,638.13,712.28,642,721Z"/><path id="F_key" data-name="F# key" d="M6.3,589.28c6.2,6,20,1.12,27.57-1.54,15.92-5.59,24.54-14.15,35.24-23,4.08-3.37,19.06-13,49-32.17,16.44-10.54,13.55-8.3,52.08-32.17,56.25-34.86,52.33-33.41,56.68-35.24,17.65-7.39,32.22-10.34,35.24-21.45a20.48,20.48,0,0,0-4.6-18.38c-17.15-18.48-58.56,18.12-101.1,0-7.92-3.37-13.93-7.81-24.52-7.66-12.18.17-19.36,6.27-36.76,16.85-5.09,3.1-22.42,13.64-39.83,21.46-31.7,14.23-43.13,10.2-49,21.44-4,7.69.8,10.59,1.86,41.27a279.07,279.07,0,0,1-.33,30.73C6,575.77,1,584.18,6.3,589.28Z"/><path id="E_Key" data-name="E Key" class="cls-2" d="M714,888c-4.1,5-29.22,35.58-15.32,62.81,13,25.53,52.71,33,64.94,21.17,3.61-3.51,3.9-16.08,4.34-41.09.39-22-.6-21.57,0-36.76,1-24.32,3.61-29,0-32.17C759.59,854.55,731,867.39,714,888Z"/></svg>